<?xml version="1.0" standalone="no"?>
<!DOCTYPE svg PUBLIC "-//W3C//DTD SVG 20010904//EN"
 "http://www.w3.org/TR/2001/REC-SVG-20010904/DTD/svg10.dtd">
<svg version="1.0" xmlns="http://www.w3.org/2000/svg"
 width="451.000000pt" height="451.000000pt" viewBox="0 0 451.000000 451.000000"
 preserveAspectRatio="xMidYMid meet">
<metadata>
Created by potrace 1.14, written by Peter Selinger 2001-2017
</metadata>
<g transform="translate(0.000000,451.000000) scale(0.100000,-0.100000)"
fill="#000000" stroke="none">
<path d="M2226 4404 c-24 -14 -1715 -1577 -1958 -1811 -87 -83 -88 -85 -88
-133 0 -36 6 -55 23 -74 33 -38 2049 -1036 2092 -1036 23 0 329 147 1029 495
978 485 997 495 1012 531 22 53 11 95 -39 147 -23 25 -462 455 -975 957 -582
569 -946 917 -967 926 -44 18 -92 17 -129 -2z m72 -1510 c1 -775 0 -1414 -2
-1421 -3 -8 -197 83 -543 254 -296 146 -749 370 -1006 497 l-469 231 998 928
c549 510 1003 926 1009 924 7 -3 11 -441 13 -1413z"/>
<path d="M265 2183 c-54 -13 -93 -85 -75 -139 9 -27 241 -253 1018 -992 554
-527 1018 -965 1032 -975 37 -25 83 -22 122 11 35 29 1929 1873 1963 1912 14
15 20 36 20 66 0 56 -44 105 -96 107 -26 1 -250 -111 -987 -491 -525 -271
-960 -492 -967 -492 -8 0 -454 222 -992 494 -538 272 -987 496 -998 499 -11 2
-29 2 -40 0z m1030 -618 c538 -272 982 -498 987 -503 4 -4 7 -205 6 -446 l-3
-437 -970 921 c-1132 1076 -1011 960 -1003 960 3 0 446 -223 983 -495z"/>
</g>
</svg>
